<svg width="150" height="25" viewBox="0 0 150 25" fill="none" xmlns="http://www.w3.org/2000/svg">
<line y1="13.5" x2="100" y2="13.5" stroke="black" stroke-width="3"/>
<path d="M111.984 12.192C111.984 18.912 113.648 24 120.048 24C126.416 24 128.08 18.912 128.08 12.192C128.08 5.568 126.416 0.511999 120.048 0.511999C113.648 0.511999 111.984 5.568 111.984 12.192ZM125.2 12.192C125.2 17.184 124.592 21.344 120.048 21.344C115.472 21.344 114.864 17.184 114.864 12.192C114.864 7.392 115.472 3.168 120.048 3.168C124.592 3.168 125.2 7.392 125.2 12.192ZM135.342 24H138.286V0.863998H132.27V3.52H135.342V24Z" fill="black"/>
</svg>
