<svg width="150" height="25" viewBox="0 0 150 25" fill="none" xmlns="http://www.w3.org/2000/svg">
<line x1="50" y1="13.5" x2="150" y2="13.5" stroke="black" stroke-width="3"/>
<path d="M1.984 12.192C1.984 18.912 3.648 24 10.048 24C16.416 24 18.08 18.912 18.08 12.192C18.08 5.568 16.416 0.511999 10.048 0.511999C3.648 0.511999 1.984 5.568 1.984 12.192ZM15.2 12.192C15.2 17.184 14.592 21.344 10.048 21.344C5.472 21.344 4.864 17.184 4.864 12.192C4.864 7.392 5.472 3.168 10.048 3.168C14.592 3.168 15.2 7.392 15.2 12.192ZM22.6857 23.744H38.0777V21.312H27.0697C31.1977 17.952 37.4058 13.056 37.4058 7.296C37.4058 3.008 34.5897 0.447998 30.2377 0.447998C26.0777 0.447998 22.9737 3.008 22.7817 7.936H25.5977C25.7257 5.024 27.2617 2.944 30.2697 2.944C33.4057 2.944 34.5258 4.864 34.5258 7.424C34.5258 12.16 28.7657 16.768 22.6857 21.664V23.744Z" fill="black"/>
</svg>
