<svg width="150" height="25" viewBox="0 0 150 25" fill="none" xmlns="http://www.w3.org/2000/svg">
<line y1="13.5" x2="100" y2="13.5" stroke="black" stroke-width="3"/>
<path d="M111.984 12.192C111.984 18.912 113.648 24 120.048 24C126.416 24 128.08 18.912 128.08 12.192C128.08 5.568 126.416 0.511999 120.048 0.511999C113.648 0.511999 111.984 5.568 111.984 12.192ZM125.2 12.192C125.2 17.184 124.592 21.344 120.048 21.344C115.472 21.344 114.864 17.184 114.864 12.192C114.864 7.392 115.472 3.168 120.048 3.168C124.592 3.168 125.2 7.392 125.2 12.192ZM132.974 6.688H135.822C136.11 4.448 137.742 2.912 140.462 2.912C143.246 2.912 144.718 4.448 144.718 6.656C144.718 9.344 142.638 10.528 138.766 10.56H137.998V12.992H138.734C142.894 12.992 145.166 14.24 145.166 17.504C145.166 19.872 143.694 21.696 140.59 21.696C137.518 21.696 135.726 19.808 135.438 17.344H132.622C132.974 21.824 136.238 24.16 140.622 24.16C145.454 24.16 147.95 21.344 147.95 17.76C147.95 14.432 146.126 12.448 143.438 11.808V11.648C145.87 11.104 147.534 9.024 147.534 6.368C147.534 3.04 145.07 0.415998 140.558 0.415998C136.27 0.415998 133.262 2.72 132.974 6.688Z" fill="black"/>
</svg>
