<svg width="267" height="25" viewBox="0 0 267 25" fill="none" xmlns="http://www.w3.org/2000/svg">
<line x1="167" y1="13.5" x2="267" y2="13.5" stroke="black" stroke-width="3"/>
<path d="M17.44 24H20.512L12.48 1.824H9.12L1.056 24H4.128L5.92 19.04H15.648L17.44 24ZM14.816 16.672H6.752L10.784 5.408L14.816 16.672ZM27.8985 9.728V0.32H24.9865V24H27.8985V20.768C28.9865 22.688 31.2585 24.288 34.4585 24.288C39.1625 24.288 42.7785 20.608 42.7785 15.168C42.7785 9.696 39.1945 6.176 34.4585 6.176C31.3545 6.176 29.0185 7.776 27.8985 9.728ZM39.8025 15.168C39.8025 19.296 37.0825 21.728 33.8505 21.728C30.6825 21.728 27.8985 19.328 27.8985 15.2C27.8985 11.136 30.6825 8.704 33.8505 8.704C37.0825 8.704 39.8025 11.04 39.8025 15.168ZM64.2115 15.2C64.2115 9.664 60.3395 6.176 55.3475 6.176C50.3875 6.176 46.4835 9.664 46.4835 15.2C46.4835 20.768 50.2595 24.288 55.2195 24.288C60.2115 24.288 64.2115 20.768 64.2115 15.2ZM49.4595 15.2C49.4595 10.784 52.2435 8.704 55.3155 8.704C58.3235 8.704 61.2355 10.784 61.2355 15.2C61.2355 19.648 58.2595 21.728 55.2195 21.728C52.1795 21.728 49.4595 19.648 49.4595 15.2ZM84.5522 6.464H81.6402V16.096C81.6402 19.872 79.6242 21.728 76.6162 21.728C73.6722 21.728 71.7202 19.904 71.7202 16.352V6.464H68.8402V16.736C68.8402 21.76 72.0082 24.256 76.0402 24.256C78.3762 24.256 80.5202 23.232 81.6402 21.408V24H84.5522V6.464ZM91.069 19.2C91.069 22.72 92.829 24 95.933 24H98.557V21.536H96.413C94.621 21.536 93.981 20.928 93.981 19.2V8.864H98.557V6.464H93.981V2.048H91.069V6.464H88.797V8.864H91.069V19.2ZM112.473 15.776C112.473 21.568 116.249 24.224 120.857 24.224C125.465 24.224 129.273 21.568 129.273 15.776V1.696H126.361V15.808C126.361 19.904 124.185 21.664 120.889 21.664C117.593 21.664 115.385 19.904 115.385 15.808V1.696H112.473V15.776ZM147.698 19.232C147.57 12.96 137.394 15.232 137.394 11.072C137.394 9.664 138.674 8.64 140.818 8.64C143.154 8.64 144.498 9.92 144.626 11.68H147.538C147.346 8.256 144.786 6.176 140.914 6.176C137.01 6.176 134.482 8.384 134.482 11.072C134.482 17.6 144.85 15.328 144.85 19.232C144.85 20.672 143.57 21.824 141.266 21.824C138.802 21.824 137.298 20.544 137.138 18.848H134.13C134.322 22.048 137.202 24.288 141.298 24.288C145.17 24.288 147.698 22.112 147.698 19.232Z" fill="black"/>
</svg>
