<svg width="203" height="73" viewBox="0 0 203 73" fill="none" xmlns="http://www.w3.org/2000/svg">
<rect width="145" height="55" transform="translate(29)" fill="#03045E"/>
<path d="M59.438 35.398H41.498L37.634 44H34.092L48.812 11.8H52.17L66.89 44H63.302L59.438 35.398ZM58.196 32.638L50.468 15.342L42.74 32.638H58.196ZM117.698 11.8V44H114.432V18.24L101.782 39.906H100.172L87.5217 18.378V44H84.2557V11.8H87.0617L101.046 35.674L114.892 11.8H117.698ZM162.216 44L154.856 33.65C154.028 33.742 153.17 33.788 152.28 33.788H143.632V44H140.228V11.8H152.28C156.39 11.8 159.61 12.7813 161.94 14.744C164.271 16.7067 165.436 19.4053 165.436 22.84C165.436 25.3547 164.792 27.486 163.504 29.234C162.247 30.9513 160.438 32.1933 158.076 32.96L165.942 44H162.216ZM152.188 30.89C155.378 30.89 157.816 30.1847 159.502 28.774C161.189 27.3633 162.032 25.3853 162.032 22.84C162.032 20.2333 161.189 18.24 159.502 16.86C157.816 15.4493 155.378 14.744 152.188 14.744H143.632V30.89H152.188Z" fill="white"/>
<path d="M7.86198 69H9.30198L6.31398 60.648H4.72998L1.74198 69H3.16998L3.76998 67.296H7.26198L7.86198 69ZM6.87798 66.18H4.15398L5.52198 62.304L6.87798 66.18ZM15.5332 67.152C15.4612 64.764 11.7292 65.508 11.7292 64.176C11.7292 63.732 12.1132 63.432 12.8452 63.432C13.5892 63.432 14.0332 63.828 14.0812 64.404H15.4492C15.3772 63.084 14.3932 62.28 12.8932 62.28C11.3332 62.28 10.3492 63.132 10.3492 64.188C10.3492 66.612 14.1892 65.868 14.1892 67.164C14.1892 67.62 13.7692 67.956 12.9772 67.956C12.2212 67.956 11.7052 67.512 11.6572 66.972H10.2412C10.3012 68.172 11.4172 69.108 13.0012 69.108C14.5612 69.108 15.5332 68.268 15.5332 67.152ZM21.9433 67.152C21.8713 64.764 18.1393 65.508 18.1393 64.176C18.1393 63.732 18.5233 63.432 19.2553 63.432C19.9993 63.432 20.4433 63.828 20.4913 64.404H21.8593C21.7873 63.084 20.8033 62.28 19.3033 62.28C17.7433 62.28 16.7593 63.132 16.7593 64.188C16.7593 66.612 20.5993 65.868 20.5993 67.164C20.5993 67.62 20.1793 67.956 19.3873 67.956C18.6313 67.956 18.1153 67.512 18.0673 66.972H16.6513C16.7113 68.172 17.8273 69.108 19.4113 69.108C20.9713 69.108 21.9433 68.268 21.9433 67.152ZM29.7215 65.688C29.7215 63.612 28.2335 62.28 26.3495 62.28C24.4655 62.28 22.9775 63.612 22.9775 65.688C22.9775 67.764 24.4055 69.108 26.2895 69.108C28.1855 69.108 29.7215 67.764 29.7215 65.688ZM24.3695 65.688C24.3695 64.188 25.2935 63.468 26.3255 63.468C27.3455 63.468 28.3175 64.188 28.3175 65.688C28.3175 67.188 27.3095 67.92 26.2895 67.92C25.2575 67.92 24.3695 67.188 24.3695 65.688ZM30.6178 65.688C30.6178 67.764 31.9618 69.108 33.8578 69.108C35.4778 69.108 36.5338 68.208 36.9058 66.912H35.4298C35.1778 67.596 34.6738 67.956 33.8578 67.956C32.7538 67.956 32.0218 67.14 32.0218 65.688C32.0218 64.248 32.7538 63.432 33.8578 63.432C34.6738 63.432 35.2018 63.84 35.4298 64.476H36.9058C36.5338 63.084 35.4778 62.28 33.8578 62.28C31.9618 62.28 30.6178 63.624 30.6178 65.688ZM38.2691 69H39.6371V62.388H38.2691V69ZM38.9651 61.512C39.4451 61.512 39.8291 61.128 39.8291 60.636C39.8291 60.144 39.4451 59.76 38.9651 59.76C38.4731 59.76 38.0891 60.144 38.0891 60.636C38.0891 61.128 38.4731 61.512 38.9651 61.512ZM40.9772 65.664C40.9772 67.704 42.3572 69.108 44.0732 69.108C45.1772 69.108 45.9692 68.58 46.3892 68.016V69H47.7692V62.388H46.3892V63.348C45.9812 62.808 45.2132 62.28 44.0972 62.28C42.3572 62.28 40.9772 63.624 40.9772 65.664ZM46.3892 65.688C46.3892 67.116 45.4172 67.92 44.3852 67.92C43.3652 67.92 42.3812 67.092 42.3812 65.664C42.3812 64.236 43.3652 63.468 44.3852 63.468C45.4172 63.468 46.3892 64.272 46.3892 65.688ZM49.782 67.164C49.782 68.508 50.514 69 51.69 69H52.77V67.86H51.93C51.354 67.86 51.162 67.656 51.162 67.164V63.504H52.77V62.388H51.162V60.744H49.782V62.388H49.002V63.504H49.782V67.164ZM56.8149 63.432C57.8349 63.432 58.6389 64.08 58.6629 65.1H55.0029C55.1469 64.056 55.8909 63.432 56.8149 63.432ZM59.9109 67.032H58.4349C58.1829 67.548 57.7149 67.956 56.8749 67.956C55.8669 67.956 55.0869 67.296 54.9909 66.204H60.0429C60.0789 65.976 60.0909 65.76 60.0909 65.532C60.0909 63.588 58.7589 62.28 56.8749 62.28C54.9189 62.28 53.5749 63.612 53.5749 65.688C53.5749 67.764 54.9789 69.108 56.8749 69.108C58.4949 69.108 59.5389 68.184 59.9109 67.032ZM66.3691 67.152C66.2971 64.764 62.5651 65.508 62.5651 64.176C62.5651 63.732 62.9491 63.432 63.6811 63.432C64.4251 63.432 64.8691 63.828 64.9171 64.404H66.2851C66.2131 63.084 65.2291 62.28 63.7291 62.28C62.1691 62.28 61.1851 63.132 61.1851 64.188C61.1851 66.612 65.0251 65.868 65.0251 67.164C65.0251 67.62 64.6051 67.956 63.8131 67.956C63.0571 67.956 62.5411 67.512 62.4931 66.972H61.0771C61.1371 68.172 62.2531 69.108 63.8371 69.108C65.3971 69.108 66.3691 68.268 66.3691 67.152ZM70.5085 64.812C70.5085 67.32 72.4165 69.072 74.7685 69.072C76.5085 69.072 78.0085 68.208 78.6445 66.576H77.0005C76.5565 67.464 75.7645 67.884 74.7685 67.884C73.1125 67.884 71.9125 66.696 71.9125 64.812C71.9125 62.928 73.1125 61.752 74.7685 61.752C75.7645 61.752 76.5565 62.172 77.0005 63.06H78.6445C78.0085 61.428 76.5085 60.552 74.7685 60.552C72.4165 60.552 70.5085 62.316 70.5085 64.812ZM86.5457 65.688C86.5457 63.612 85.0577 62.28 83.1737 62.28C81.2897 62.28 79.8017 63.612 79.8017 65.688C79.8017 67.764 81.2297 69.108 83.1137 69.108C85.0097 69.108 86.5457 67.764 86.5457 65.688ZM81.1937 65.688C81.1937 64.188 82.1177 63.468 83.1497 63.468C84.1697 63.468 85.1417 64.188 85.1417 65.688C85.1417 67.188 84.1337 67.92 83.1137 67.92C82.0817 67.92 81.1937 67.188 81.1937 65.688ZM97.27 69H98.626V65.1C98.626 63.252 97.45 62.28 95.902 62.28C94.942 62.28 94.006 62.784 93.598 63.588C93.142 62.724 92.266 62.28 91.222 62.28C90.43 62.28 89.71 62.604 89.266 63.144V62.388H87.898V69H89.266V65.304C89.266 64.092 89.926 63.468 90.934 63.468C91.93 63.468 92.59 64.092 92.59 65.304V69H93.946V65.304C93.946 64.092 94.606 63.468 95.614 63.468C96.61 63.468 97.27 64.092 97.27 65.304V69ZM101.735 63.36V62.388H100.367V72.144H101.735V68.04C102.167 68.556 102.947 69.108 104.039 69.108C105.779 69.108 107.147 67.704 107.147 65.664C107.147 63.624 105.779 62.28 104.039 62.28C102.959 62.28 102.155 62.808 101.735 63.36ZM105.755 65.664C105.755 67.092 104.771 67.92 103.739 67.92C102.719 67.92 101.735 67.116 101.735 65.688C101.735 64.272 102.719 63.468 103.739 63.468C104.771 63.468 105.755 64.236 105.755 65.664ZM108.044 65.664C108.044 67.704 109.424 69.108 111.14 69.108C112.244 69.108 113.036 68.58 113.456 68.016V69H114.836V62.388H113.456V63.348C113.048 62.808 112.28 62.28 111.164 62.28C109.424 62.28 108.044 63.624 108.044 65.664ZM113.456 65.688C113.456 67.116 112.484 67.92 111.452 67.92C110.432 67.92 109.448 67.092 109.448 65.664C109.448 64.236 110.432 63.468 111.452 63.468C112.484 63.468 113.456 64.272 113.456 65.688ZM121.324 69H122.68V65.1C122.68 63.252 121.516 62.28 119.968 62.28C119.176 62.28 118.444 62.604 118 63.144V62.388H116.632V69H118V65.304C118 64.092 118.66 63.468 119.668 63.468C120.664 63.468 121.324 64.092 121.324 65.304V69ZM127.029 67.428L125.169 62.388H123.645L126.249 68.892L124.905 72.108H126.321L130.377 62.388H128.961L127.029 67.428ZM140.155 66.636C140.155 63.588 135.739 64.764 135.739 62.88C135.739 62.076 136.351 61.692 137.143 61.716C138.007 61.74 138.499 62.256 138.547 62.82H140.059C139.939 61.392 138.811 60.552 137.215 60.552C135.511 60.552 134.347 61.464 134.347 62.928C134.347 66 138.775 64.692 138.775 66.708C138.775 67.416 138.235 67.932 137.275 67.932C136.327 67.932 135.847 67.38 135.787 66.696H134.323C134.323 68.172 135.607 69.084 137.275 69.084C139.135 69.084 140.155 67.884 140.155 66.636ZM144.553 63.432C145.573 63.432 146.377 64.08 146.401 65.1H142.741C142.885 64.056 143.629 63.432 144.553 63.432ZM147.649 67.032H146.173C145.921 67.548 145.453 67.956 144.613 67.956C143.605 67.956 142.825 67.296 142.729 66.204H147.781C147.817 65.976 147.829 65.76 147.829 65.532C147.829 63.588 146.497 62.28 144.613 62.28C142.657 62.28 141.313 63.612 141.313 65.688C141.313 67.764 142.717 69.108 144.613 69.108C146.233 69.108 147.277 68.184 147.649 67.032ZM148.719 65.688C148.719 67.764 150.063 69.108 151.959 69.108C153.579 69.108 154.635 68.208 155.007 66.912H153.531C153.279 67.596 152.775 67.956 151.959 67.956C150.855 67.956 150.123 67.14 150.123 65.688C150.123 64.248 150.855 63.432 151.959 63.432C152.775 63.432 153.303 63.84 153.531 64.476H155.007C154.635 63.084 153.579 62.28 151.959 62.28C150.063 62.28 148.719 63.624 148.719 65.688ZM157.739 65.52C157.739 64.116 158.363 63.696 159.371 63.696H159.719V62.28C158.783 62.28 158.123 62.688 157.739 63.348V62.388H156.371V69H157.739V65.52ZM163.76 63.432C164.78 63.432 165.584 64.08 165.608 65.1H161.948C162.092 64.056 162.836 63.432 163.76 63.432ZM166.856 67.032H165.38C165.128 67.548 164.66 67.956 163.82 67.956C162.812 67.956 162.032 67.296 161.936 66.204H166.988C167.024 65.976 167.036 65.76 167.036 65.532C167.036 63.588 165.704 62.28 163.82 62.28C161.864 62.28 160.52 63.612 160.52 65.688C160.52 67.764 161.924 69.108 163.82 69.108C165.44 69.108 166.484 68.184 166.856 67.032ZM168.598 67.164C168.598 68.508 169.33 69 170.506 69H171.586V67.86H170.746C170.17 67.86 169.978 67.656 169.978 67.164V63.504H171.586V62.388H169.978V60.744H168.598V62.388H167.818V63.504H168.598V67.164ZM172.391 65.664C172.391 67.704 173.771 69.108 175.487 69.108C176.591 69.108 177.383 68.58 177.803 68.016V69H179.183V62.388H177.803V63.348C177.395 62.808 176.627 62.28 175.511 62.28C173.771 62.28 172.391 63.624 172.391 65.664ZM177.803 65.688C177.803 67.116 176.831 67.92 175.799 67.92C174.779 67.92 173.795 67.092 173.795 65.664C173.795 64.236 174.779 63.468 175.799 63.468C176.831 63.468 177.803 64.272 177.803 65.688ZM182.348 65.52C182.348 64.116 182.972 63.696 183.98 63.696H184.328V62.28C183.392 62.28 182.732 62.688 182.348 63.348V62.388H180.98V69H182.348V65.52ZM185.586 69H186.954V62.388H185.586V69ZM186.282 61.512C186.762 61.512 187.146 61.128 187.146 60.636C187.146 60.144 186.762 59.76 186.282 59.76C185.79 59.76 185.406 60.144 185.406 60.636C185.406 61.128 185.79 61.512 186.282 61.512ZM191.534 63.432C192.554 63.432 193.358 64.08 193.382 65.1H189.722C189.866 64.056 190.61 63.432 191.534 63.432ZM194.63 67.032H193.154C192.902 67.548 192.434 67.956 191.594 67.956C190.586 67.956 189.806 67.296 189.71 66.204H194.762C194.798 65.976 194.81 65.76 194.81 65.532C194.81 63.588 193.478 62.28 191.594 62.28C189.638 62.28 188.294 63.612 188.294 65.688C188.294 67.764 189.698 69.108 191.594 69.108C193.214 69.108 194.258 68.184 194.63 67.032ZM201.088 67.152C201.016 64.764 197.284 65.508 197.284 64.176C197.284 63.732 197.668 63.432 198.4 63.432C199.144 63.432 199.588 63.828 199.636 64.404H201.004C200.932 63.084 199.948 62.28 198.448 62.28C196.888 62.28 195.904 63.132 195.904 64.188C195.904 66.612 199.744 65.868 199.744 67.164C199.744 67.62 199.324 67.956 198.532 67.956C197.776 67.956 197.26 67.512 197.212 66.972H195.796C195.856 68.172 196.972 69.108 198.556 69.108C200.116 69.108 201.088 68.268 201.088 67.152Z" fill="black"/>
</svg>
