<svg width="24" height="24" viewBox="0 0 24 24" fill="none" xmlns="http://www.w3.org/2000/svg">
<path d="M20.25 3.75H4.25C3.71957 3.75 3.21086 3.96071 2.83579 4.33579C2.46071 4.71086 2.25 5.21957 2.25 5.75V17.75C2.25 18.2804 2.46071 18.7891 2.83579 19.1642C3.21086 19.5393 3.71957 19.75 4.25 19.75H20.25C20.7804 19.75 21.2891 19.5393 21.6642 19.1642C22.0393 18.7891 22.25 18.2804 22.25 17.75V5.75C22.25 5.21957 22.0393 4.71086 21.6642 4.33579C21.2891 3.96071 20.7804 3.75 20.25 3.75ZM20.25 8.45L12.25 13.784L4.25 8.45V6.047L12.25 11.38L20.25 6.047V8.45Z" fill="white" fill-opacity="0.8"/>
</svg>
